<svg version="1.1" xmlns="http://www.w3.org/2000/svg" xmlns:xlink="http://www.w3.org/1999/xlink" style="enable-background:new 0 0 511.999 511.999;" xml:space="preserve" width="511.999" height="511.999"><rect id="backgroundrect" width="100%" height="100%" x="0" y="0" fill="none" stroke="none"/>
















<g class="currentLayer" style=""><title>Layer 1</title><g id="svg_1" class="selected" fill="#ffffff" fill-opacity="1">
	<polygon style="" points="207.853,271.997 192.146,271.997 192.146,296.145 167.853,296.145 167.853,231.853    192.146,231.853 192.146,239.995 207.853,239.995 207.853,216.146 152.146,216.146 152.146,311.852 207.853,311.852  " id="svg_2" fill="#ffffff" fill-opacity="1"/>
	<rect x="176" y="248.14599609375" style="" width="56" height="15.706999778747559" id="svg_3" fill="#ffffff" fill-opacity="1"/>
	<path style="" d="M103.854,56.146H24.147v127.707h79.707V56.146z M88.147,168.146H39.853V71.853h48.293V168.146z" id="svg_4" fill="#ffffff" fill-opacity="1"/>
	<rect x="47.999000549316406" y="144.14599609375" style="" width="32" height="15.706999778747559" id="svg_5" fill="#ffffff" fill-opacity="1"/>
	<rect x="56.14699935913086" y="87.9990005493164" style="" width="15.706999778747559" height="40" id="svg_6" fill="#ffffff" fill-opacity="1"/>
	<rect x="32" y="192.14599609375" style="" width="16" height="15.706999778747559" id="svg_7" fill="#ffffff" fill-opacity="1"/>
	<rect x="56" y="192.14599609375" style="" width="16" height="15.706999778747559" id="svg_8" fill="#ffffff" fill-opacity="1"/>
	<rect x="80" y="192.14599609375" style="" width="16" height="15.706999778747559" id="svg_9" fill="#ffffff" fill-opacity="1"/>
	<path style="" d="M511.999,471.927V456.22H391.852V0.147H120.146v456.074H0v15.707h120.146v24.218H0v15.707h511.999   v-15.707H391.852v-24.219H511.999z M376.145,496.144H135.853V15.853h240.293L376.145,496.144L376.145,496.144z" id="svg_10" fill="#ffffff" fill-opacity="1"/>
</g><g id="svg_11">
</g><g id="svg_12">
</g><g id="svg_13">
</g><g id="svg_14">
</g><g id="svg_15">
</g><g id="svg_16">
</g><g id="svg_17">
</g><g id="svg_18">
</g><g id="svg_19">
</g><g id="svg_20">
</g><g id="svg_21">
</g><g id="svg_22">
</g><g id="svg_23">
</g><g id="svg_24">
</g><g id="svg_25">
</g></g></svg>