<svg version="1.1" xmlns="http://www.w3.org/2000/svg" xmlns:xlink="http://www.w3.org/1999/xlink" style="enable-background:new 0 0 503.607 503.607;" xml:space="preserve" width="503.60699462890625" height="503.60699462890625"><rect id="backgroundrect" width="100%" height="100%" x="0" y="0" fill="none" stroke="none"/>
















<g class="currentLayer" style=""><title>Layer 1</title>
	<polygon style="fill:#FFFFFF;" points="75.54100036621094,209.83599853515625 8.39300012588501,209.83599853515625 8.39300012588501,243.41000366210938 79.73799896240234,243.41000366210938 " id="svg_2" stroke="#ffffff" stroke-opacity="1" stroke-width="3" opacity="1" class=""/>
	
	<polygon style="fill:#FFFFFF;" points="327.343994140625,327.343994140625 352.5249938964844,327.343994140625 352.5249938964844,243.41000366210938 327.343994140625,243.41000366210938 " id="svg_4" stroke="#ffffff" stroke-opacity="1" stroke-width="3" opacity="1" class=""/>
	<polygon style="" points="453.2460021972656,327.343994140625 478.4259948730469,327.343994140625 478.4259948730469,243.41000366210938 453.2460021972656,243.41000366210938 " id="svg_5" stroke="#ffffff" stroke-opacity="1" stroke-width="3" opacity="1" class="" fill="#919191" fill-opacity="1"/>
	
	<polygon style="fill:#FFFFFF;" points="327.343994140625,411.27899169921875 352.5249938964844,411.27899169921875 352.5249938964844,327.343994140625 327.343994140625,327.343994140625 " id="svg_7" stroke="#ffffff" stroke-opacity="1" stroke-width="3" opacity="1" class=""/>
	<polygon style="" points="453.2460021972656,411.27899169921875 478.4259948730469,411.27899169921875 478.4259948730469,327.343994140625 453.2460021972656,327.343994140625 " id="svg_8" stroke="#ffffff" stroke-opacity="1" stroke-width="3" opacity="1" class="" fill="#919191" fill-opacity="1"/>
	
	<polygon style="fill:#FFFFFF;" points="327.343994140625,495.2130126953125 352.5249938964844,495.2130126953125 352.5249938964844,411.27899169921875 327.343994140625,411.27899169921875 " id="svg_10" stroke="#ffffff" stroke-opacity="1" stroke-width="3" opacity="1" class=""/>
	<polygon style="" points="453.2460021972656,495.2130126953125 478.4259948730469,495.2130126953125 478.4259948730469,411.27899169921875 453.2460021972656,411.27899169921875 " id="svg_11" stroke="#ffffff" stroke-opacity="1" stroke-width="3" opacity="1" class="" fill="#919191" fill-opacity="1"/>
	
	<polygon style="fill:#FFFFFF;" points="25.18000030517578,495.2130126953125 41.96699905395508,495.2130126953125 41.96699905395508,243.41000366210938 25.18000030517578,243.41000366210938 " id="svg_19" stroke="#ffffff" stroke-opacity="1" stroke-width="3" opacity="1" class=""/>
	<polygon style="" points="287.0559997558594,209.83599853515625 282.0199890136719,243.41000366210938 495.2130126953125,243.41000366210938 495.2130126953125,209.83599853515625 " id="svg_20" stroke="#ffffff" stroke-opacity="1" stroke-width="3" opacity="1" class="" fill="#919191" fill-opacity="1"/>
	
	<path style="fill:#FFFFFF;" d="M251.803,92.328 c9.233,0 17.626,3.357 25.18,7.554 V16.787 c0,-5.036 3.357,-8.393 8.393,-8.393 h-25.18 c-5.036,0 -8.393,3.357 -8.393,8.393 V92.328 L251.803,92.328 z" id="svg_24" stroke="#ffffff" stroke-opacity="1" stroke-width="3" opacity="1" class=""/>
	
	<path style="fill:#FFFFFF;" d="M127.58,246.767 l-10.072,-104.918 c-2.518,-26.02 12.59,-49.521 32.734,-49.521 h-14.269 c-26.859,0 -47.003,23.502 -43.646,49.521 l13.43,104.918 c2.518,21.823 21.823,38.61 43.646,38.61 h10.911 C144.367,285.377 130.098,268.59 127.58,246.767 " id="svg_26" stroke="#ffffff" stroke-opacity="1" stroke-width="3" opacity="1" class=""/>
	<path style="" d="M249.285,92.328 h-14.269 c20.144,0 35.252,23.502 32.734,49.521 l-10.072,104.918 c-1.6790000000000003,21.823 -15.948,38.61 -32.734,38.61 h10.911 c21.823,0 41.128,-16.787 43.646,-38.61 l13.43,-104.918 C297.128,115.83 276.144,92.328 249.285,92.328 " id="svg_27" stroke="#ffffff" stroke-opacity="1" stroke-width="3" opacity="1" class="" fill="#919191" fill-opacity="1"/>
	
	<path style="" d="M478.426,8.393 h-25.18 c5.036,0 8.393,3.357 8.393,8.393 v134.295 c0,5.036 -3.357,8.393 -8.393,8.393 h25.18 c5.036,0 8.393,-3.357 8.393,-8.393 V16.787 C486.82,11.751 482.623,8.393 478.426,8.393 " id="svg_29" stroke="#ffffff" stroke-opacity="1" stroke-width="3" opacity="1" class="" fill="#919191" fill-opacity="1"/>
	<path style="" d="M495.213,8.393 h-25.18 c5.036,0 8.393,3.357 8.393,8.393 v134.295 c0,5.036 -3.357,8.393 -8.393,8.393 h25.18 c5.036,0 8.393,-3.357 8.393,-8.393 V16.787 C503.607,11.751 499.41,8.393 495.213,8.393 " id="svg_30" stroke="#ffffff" stroke-opacity="1" stroke-width="3" opacity="1" class="" fill="#dadada" fill-opacity="1"/>
	<path d="M428.066,8.393 c0,-5.036 -3.357,-8.393 -8.393,-8.393 c-5.036,0 -8.393,3.357 -8.393,8.393 s3.357,8.393 8.393,8.393 C423.869,16.787 428.066,13.43 428.066,8.393 " id="svg_31" stroke="#000000" stroke-opacity="1" stroke-width="3" opacity="1" class="" fill="#ffffff" fill-opacity="1"/>
	<path d="M411.279,218.229 h-83.934 c-5.036,0 -8.393,-3.357 -8.393,-8.393 v-14.269 c0,-10.911 8.393,-19.305 19.305,-19.305 h61.272 c10.911,0 19.305,8.393 19.305,19.305 v14.269 C419.672,214.872 415.475,218.229 411.279,218.229 zM335.738,201.443 h67.148 v-5.875 c0,-1.6790000000000003 -0.8390000000000001,-2.518 -2.518,-2.518 h-61.272 c-1.6790000000000003,0 -2.518,0.8390000000000001 -2.518,2.518 v5.875 H335.738 z" id="svg_32" stroke="#000000" stroke-opacity="1" stroke-width="3" opacity="1" class="" fill="#ffffff" fill-opacity="1"/>
	<path d="M386.098,193.049 h-33.574 c-5.036,0 -8.393,-3.357 -8.393,-8.393 v-25.18 c0,-5.036 3.357,-8.393 8.393,-8.393 h33.574 c5.036,0 8.393,3.357 8.393,8.393 v25.18 C394.492,189.692 390.295,193.049 386.098,193.049 zM360.918,176.262 h16.787 v-8.393 h-16.787 V176.262 z" id="svg_33" stroke="#000000" stroke-opacity="1" stroke-width="3" opacity="1" class="" fill="#ffffff" fill-opacity="1"/>
	<path d="M478.426,335.738 H327.344 c-5.036,0 -8.393,-3.357 -8.393,-8.393 V243.41 c0,-5.036 3.357,-8.393 8.393,-8.393 h151.082 c5.036,0 8.393,3.357 8.393,8.393 v83.934 C486.82,332.38 482.623,335.738 478.426,335.738 zM335.738,318.951 h134.295 v-67.148 H335.738 V318.951 z" id="svg_34" stroke="#000000" stroke-opacity="1" stroke-width="3" opacity="1" class="" fill="#ffffff" fill-opacity="1"/>
	<path d="M478.426,419.672 H327.344 c-5.036,0 -8.393,-3.357 -8.393,-8.393 v-83.934 c0,-5.036 3.357,-8.393 8.393,-8.393 h151.082 c5.036,0 8.393,3.357 8.393,8.393 v83.934 C486.82,416.315 482.623,419.672 478.426,419.672 zM335.738,402.885 h134.295 v-67.148 H335.738 V402.885 z" id="svg_35" stroke="#000000" stroke-opacity="1" stroke-width="3" opacity="1" class="" fill="#ffffff" fill-opacity="1"/>
	<path d="M478.426,503.607 H327.344 c-5.036,0 -8.393,-3.357 -8.393,-8.393 v-83.934 c0,-5.036 3.357,-8.393 8.393,-8.393 h151.082 c5.036,0 8.393,3.357 8.393,8.393 v83.934 C486.82,500.249 482.623,503.607 478.426,503.607 zM335.738,486.82 h134.295 v-67.148 H335.738 V486.82 z" id="svg_36" stroke="#000000" stroke-opacity="1" stroke-width="3" opacity="1" class="" fill="#ffffff" fill-opacity="1"/>
	<path d="M411.279,293.77 h-16.787 c-5.036,0 -8.393,-3.357 -8.393,-8.393 c0,-5.036 3.357,-8.393 8.393,-8.393 h16.787 c5.036,0 8.393,3.357 8.393,8.393 C419.672,290.413 415.475,293.77 411.279,293.77 z" id="svg_37" stroke="#000000" stroke-opacity="1" stroke-width="3" opacity="1" class="" fill="#ffffff" fill-opacity="1"/>
	<path d="M411.279,377.705 h-16.787 c-5.036,0 -8.393,-3.357 -8.393,-8.393 c0,-5.036 3.357,-8.393 8.393,-8.393 h16.787 c5.036,0 8.393,3.357 8.393,8.393 C419.672,374.348 415.475,377.705 411.279,377.705 z" id="svg_38" stroke="#000000" stroke-opacity="1" stroke-width="3" opacity="1" class="" fill="#ffffff" fill-opacity="1"/>
	<path d="M411.279,461.639 h-16.787 c-5.036,0 -8.393,-3.357 -8.393,-8.393 s3.357,-8.393 8.393,-8.393 h16.787 c5.036,0 8.393,3.357 8.393,8.393 S415.475,461.639 411.279,461.639 z" id="svg_39" stroke="#000000" stroke-opacity="1" stroke-width="3" opacity="1" class="" fill="#ffffff" fill-opacity="1"/>
	<path d="M58.754,503.607 H25.18 c-5.036,0 -8.393,-3.357 -8.393,-8.393 V243.41 c0,-5.036 3.357,-8.393 8.393,-8.393 h33.574 c5.036,0 8.393,3.357 8.393,8.393 v251.803 C67.148,500.249 62.951,503.607 58.754,503.607 zM33.574,486.82 h16.787 V251.803 H33.574 V486.82 z" id="svg_40" stroke="#000000" stroke-opacity="1" stroke-width="3" opacity="1" class="" fill="#ffffff" fill-opacity="1"/>
	<path d="M260.197,495.213 H125.902 c-5.036,0 -8.393,-3.357 -8.393,-8.393 v-25.18 c0,-5.036 3.357,-8.393 8.393,-8.393 h134.295 c5.036,0 8.393,3.357 8.393,8.393 v25.18 C268.59,491.856 264.393,495.213 260.197,495.213 zM134.295,478.426 h117.508 v-8.393 H134.295 V478.426 z" id="svg_41" stroke="#000000" stroke-opacity="1" stroke-width="3" opacity="1" class="" fill="#ffffff" fill-opacity="1"/>
	<path d="M142.689,503.607 c-5.036,0 -8.393,-3.357 -8.393,-8.393 v-8.393 c0,-5.036 3.357,-8.393 8.393,-8.393 c5.036,0 8.393,3.357 8.393,8.393 v8.393 C151.082,500.249 146.885,503.607 142.689,503.607 z" id="svg_42" stroke="#000000" stroke-opacity="1" stroke-width="3" opacity="1" class="" fill="#ffffff" fill-opacity="1"/>
	<path d="M243.41,503.607 c-5.036,0 -8.393,-3.357 -8.393,-8.393 v-8.393 c0,-5.036 3.357,-8.393 8.393,-8.393 s8.393,3.357 8.393,8.393 v8.393 C251.803,500.249 247.607,503.607 243.41,503.607 z" id="svg_43" stroke="#000000" stroke-opacity="1" stroke-width="3" opacity="1" class="" fill="#ffffff" fill-opacity="1"/>
	<path d="M218.229,470.033 h-50.361 c-5.036,0 -8.393,-3.357 -8.393,-8.393 v-25.18 c0,-14.269 10.911,-25.18 25.18,-25.18 h16.787 c14.269,0 25.18,10.911 25.18,25.18 v25.18 C226.623,466.675 222.426,470.033 218.229,470.033 zM176.262,453.246 h33.574 v-16.787 c0,-4.197 -3.357,-8.393 -8.393,-8.393 h-16.787 c-4.197,0 -8.393,3.357 -8.393,8.393 V453.246 z" id="svg_44" stroke="#000000" stroke-opacity="1" stroke-width="3" opacity="1" class="" fill="#ffffff" fill-opacity="1"/>
	<path d="M193.049,428.066 c-5.036,0 -8.393,-3.357 -8.393,-8.393 V293.77 c0,-5.036 3.357,-8.393 8.393,-8.393 c5.036,0 8.393,3.357 8.393,8.393 v125.902 C201.443,424.708 197.246,428.066 193.049,428.066 z" id="svg_45" stroke="#000000" stroke-opacity="1" stroke-width="3" opacity="1" class="" fill="#ffffff" fill-opacity="1"/>
	<path d="M276.984,360.918 H109.115 c-5.036,0 -8.393,-3.357 -8.393,-8.393 c0,-23.502 18.466,-41.967 41.967,-41.967 H243.41 c23.502,0 41.967,18.466 41.967,41.967 C285.377,357.561 281.18,360.918 276.984,360.918 zM119.187,344.131 h148.564 c-3.357,-10.072 -12.59,-16.787 -23.502,-16.787 H143.528 C131.777,327.344 122.544,334.059 119.187,344.131 z" id="svg_46" stroke="#000000" stroke-opacity="1" stroke-width="3" opacity="1" class="" fill="#ffffff" fill-opacity="1"/>
	<path d="M238.374,293.77 h-88.97 c-26.02,0 -48.682,-19.305 -52.039,-46.164 L83.095,143.528 c-1.6790000000000003,-15.108 2.518,-30.216 12.59,-41.128 s24.341,-17.626 39.449,-17.626 h115.829 c15.108,0 29.377,6.715 39.449,17.626 c10.072,11.751 14.269,26.859 12.59,41.128 l-13.429,104.918 C287.056,274.466 264.393,293.77 238.374,293.77 zM135.134,100.721 c-10.072,0 -20.144,4.197 -26.859,11.751 c-6.715,7.554 -10.072,17.626 -8.393,28.538 l13.43,104.918 c2.518,17.626 17.626,31.056 35.252,31.056 h88.97 c17.626,0 32.734,-13.43 35.252,-31.056 l13.43,-104.918 c1.6790000000000003,-10.072 -1.6790000000000003,-20.144 -8.393,-28.538 c-6.715,-7.554 -16.787,-11.751 -26.859,-11.751 H135.134 z" id="svg_47" stroke="#000000" stroke-opacity="1" stroke-width="3" opacity="1" class="" fill="#ffffff" fill-opacity="1"/>
	<path d="M495.213,251.803 H282.02 c-2.518,0 -5.036,-0.8390000000000001 -6.715,-2.518 c-1.6790000000000003,-1.6790000000000003 -2.518,-4.197 -1.6790000000000003,-6.715 l4.197,-33.574 c0.8390000000000001,-4.197 4.197,-7.554 8.393,-7.554 h208.157 c5.036,0 8.393,3.357 8.393,8.393 v33.574 C503.607,248.446 499.41,251.803 495.213,251.803 zM292.092,235.016 H486.82 v-16.787 H293.77 L292.092,235.016 z" id="svg_48" stroke="#000000" stroke-opacity="1" stroke-width="3" opacity="1" class="" fill="#ffffff" fill-opacity="1"/>
	<path d="M104.918,251.803 H8.393 c-5.036,0 -8.393,-3.357 -8.393,-8.393 v-33.574 c0,-5.036 3.357,-8.393 8.393,-8.393 h92.328 c4.197,0 7.554,3.357 8.393,7.554 l4.197,33.574 c0,2.518 -0.8390000000000001,5.036 -1.6790000000000003,6.715 S107.436,251.803 104.918,251.803 zM16.787,235.016 h78.898 l-2.518,-16.787 h-76.38 V235.016 z" id="svg_49" stroke="#000000" stroke-opacity="1" stroke-width="3" opacity="1" class="" fill="#ffffff" fill-opacity="1"/>
	<path d="M276.984,58.754 c-2.518,0 -4.197,-0.8390000000000001 -5.875,-2.518 c-3.357,-3.357 -3.357,-8.393 0,-11.751 l16.787,-16.787 c3.357,-3.357 8.393,-3.357 11.751,0 s3.357,8.393 0,11.751 l-16.787,16.787 C281.18,57.915 278.662,58.754 276.984,58.754 z" id="svg_50" stroke="#000000" stroke-opacity="1" stroke-width="3" opacity="1" class="" fill="#ffffff" fill-opacity="1"/>
	<path d="M293.77,83.934 c-2.518,0 -4.197,-0.8390000000000001 -5.875,-2.518 c-3.357,-3.357 -3.357,-8.393 0,-11.751 l33.574,-33.574 c3.357,-3.357 8.393,-3.357 11.751,0 c3.357,3.357 3.357,8.393 0,11.751 l-33.574,33.574 C297.967,83.095 295.449,83.934 293.77,83.934 z" id="svg_51" stroke="#000000" stroke-opacity="1" stroke-width="3" opacity="1" class="" fill="#ffffff" fill-opacity="1"/>
	<path d="M478.426,167.869 H293.77 c-2.518,0 -5.036,-0.8390000000000001 -6.715,-2.518 c-1.6790000000000003,-1.6790000000000003 -2.518,-4.197 -1.6790000000000003,-6.715 l2.518,-17.626 c1.6790000000000003,-10.072 -1.6790000000000003,-20.144 -8.393,-28.538 c-6.715,-7.554 -16.787,-11.751 -26.859,-11.751 c-5.036,0 -8.393,-3.357 -8.393,-8.393 V16.787 C244.249,7.554 251.803,0 261.036,0 h117.508 c5.036,0 8.393,3.357 8.393,8.393 s-3.357,8.393 -8.393,8.393 H261.036 v67.987 c11.751,1.6790000000000003 22.662,7.554 31.056,17.626 c10.072,11.751 14.269,26.859 12.59,41.128 l-1.6790000000000003,7.554 h175.423 V16.787 h-25.18 c-5.036,0 -8.393,-3.357 -8.393,-8.393 S448.21,0 453.246,0 h25.18 c9.233,0 16.787,7.554 16.787,16.787 v134.295 C495.213,160.315 487.659,167.869 478.426,167.869 z" id="svg_52" stroke="#000000" stroke-opacity="1" stroke-width="3" opacity="1" class="" fill="#ffffff" fill-opacity="1"/>
	<path d="M478.426,167.869 H293.77 c-2.518,0 -5.036,-0.8390000000000001 -6.715,-2.518 c-1.6790000000000003,-1.6790000000000003 -2.518,-4.197 -1.6790000000000003,-6.715 l2.518,-17.626 c0.8390000000000001,-4.197 0,-8.393 -0.8390000000000001,-13.43 c-0.8390000000000001,-2.518 0,-5.036 1.6790000000000003,-7.554 c1.6790000000000003,-2.518 4.197,-3.357 6.715,-3.357 h192.21 c5.036,0 8.393,3.357 8.393,8.393 v25.18 C495.213,160.315 487.659,167.869 478.426,167.869 zM303.003,151.082 h175.423 v-16.787 H303.843 c0,3.357 0,5.875 0,9.233 L303.003,151.082 z" id="svg_53" stroke="#ffffff" stroke-opacity="1" stroke-width="3" opacity="1" class=""/><path d="M478.426,167.869 H293.77 c-2.518,0 -5.036,-0.8390000000000002 -6.715,-2.518 c-1.6790000000000005,-1.6790000000000005 -2.518,-4.197 -1.6790000000000005,-6.715 l2.518,-17.626 c0.8390000000000002,-4.197 0,-8.393 -0.8390000000000002,-13.43 c-0.8390000000000002,-2.518 0,-5.036 1.6790000000000005,-7.554 c1.6790000000000005,-2.518 4.197,-3.357 6.715,-3.357 h192.21 c5.036,0 8.393,3.357 8.393,8.393 v25.18 C495.213,160.315 487.659,167.869 478.426,167.869 zM303.003,151.082 h175.423 v-16.787 H303.843 c0,3.357 0,5.875 0,9.233 L303.003,151.082 z" stroke="#000000" stroke-opacity="1" stroke-width="3" opacity="1" class="" id="svg_1" fill="#ffffff" fill-opacity="1"/>
<g id="svg_54">
</g><g id="svg_55">
</g><g id="svg_56">
</g><g id="svg_57">
</g><g id="svg_58">
</g><g id="svg_59">
</g><g id="svg_60">
</g><g id="svg_61">
</g><g id="svg_62">
</g><g id="svg_63">
</g><g id="svg_64">
</g><g id="svg_65">
</g><g id="svg_66">
</g><g id="svg_67">
</g><g id="svg_68">
</g></g></svg>