<svg width="512" height="512" xmlns="http://www.w3.org/2000/svg" xml:space="preserve" version="1.1">

 <g>
  <title>Layer 1</title>
  <g id="svg_1">
   <g id="svg_2">
    <path fill="#999999" id="svg_3" d="m410.272,243.145c-3.63,-4.486 -10.211,-5.179 -14.695,-1.548l-3.636,2.942c-4.485,3.631 -5.177,10.211 -1.546,14.696c2.066,2.551 5.083,3.875 8.128,3.875c2.309,0 4.634,-0.762 6.568,-2.328l3.635,-2.942c4.484,-3.631 5.177,-10.21 1.546,-14.695z"/>
   </g>
  </g>
  <g id="svg_4">
   <g id="svg_5">
    <path fill="#BBBBBB" id="svg_6" d="m380.363,267.357c-3.63,-4.486 -10.211,-5.179 -14.695,-1.549l-74.708,59.674c-4.485,3.631 -5.177,10.21 -1.546,14.695c2.064,2.551 5.082,3.875 8.127,3.875c2.309,0 4.634,-0.762 6.568,-2.327l74.708,-59.674c4.484,-3.63 5.177,-10.208 1.546,-14.694z"/>
   </g>
  </g>
  <g id="svg_7">
   <g id="svg_8">
    <path fill="#BBBBBB" id="svg_9" d="m449.742,62.685l-387.484,0c-34.329,0 -62.258,27.929 -62.258,62.257l0,262.117c0,34.329 27.929,62.257 62.258,62.257l387.484,0c34.33,0 62.258,-27.928 62.258,-62.257l0,-262.117c0,-34.328 -27.928,-62.257 -62.258,-62.257zm-29.83,20.897l-164.053,132.608l-164.053,-132.608l328.106,0zm8.214,344.836l-344.534,0l0,-244.036l165.712,133.49c3.826,3.082 9.284,3.082 13.11,0l165.711,-133.49l0,244.036l0.001,0zm62.976,-41.36c0,22.806 -18.554,41.359 -41.36,41.359l-0.717,0l0,-265.87c0,-4.023 -2.309,-7.688 -5.939,-9.425c-3.632,-1.738 -7.934,-1.235 -11.065,1.288l-176.162,141.908l-176.162,-141.908c-3.134,-2.523 -7.438,-3.026 -11.065,-1.288c-3.63,1.737 -5.939,5.402 -5.939,9.425l0,265.87l-0.436,0c-22.805,0.001 -41.359,-18.553 -41.359,-41.358l0,-262.117c0,-21.626 16.688,-39.418 37.861,-41.2l190.532,154.012c1.915,1.549 4.242,2.323 6.568,2.323c2.327,0 4.653,-0.774 6.568,-2.323l190.556,-154.033c21.295,1.66 38.119,19.507 38.119,41.22l0,262.117z"/>
   </g>
  </g>
  <g id="svg_10"/>
  <g id="svg_11"/>
  <g id="svg_12"/>
  <g id="svg_13"/>
  <g id="svg_14"/>
  <g id="svg_15"/>
  <g id="svg_16"/>
  <g id="svg_17"/>
  <g id="svg_18"/>
  <g id="svg_19"/>
  <g id="svg_20"/>
  <g id="svg_21"/>
  <g id="svg_22"/>
  <g id="svg_23"/>
  <g id="svg_24"/>
 </g>
</svg>