<?xml version="1.0" encoding="iso-8859-1"?>
<!-- Generator: Adobe Illustrator 19.0.0, SVG Export Plug-In . SVG Version: 6.00 Build 0)  -->
<svg version="1.1" id="Layer_1" xmlns="http://www.w3.org/2000/svg" xmlns:xlink="http://www.w3.org/1999/xlink" x="0px" y="0px"
	 viewBox="0 0 460 460" style="enable-background:new 0 0 460 460;" xml:space="preserve">
<g id="XMLID_1217_">
	<path id="XMLID_1218_" style="fill:#121923;" d="M455.987,460H330.078l-20-101.425l20-101.425
		C404.683,294,455.987,371.147,455.987,460z"/>
	<polygon id="XMLID_1219_" style="fill:#DAE0E7;" points="300.078,257.149 320.078,358.575 300.078,460 230.159,460 220,293 
		272.091,257.149 	"/>
	<polygon id="XMLID_1220_" style="fill:#FFFFFF;" points="160.241,257.149 140.241,358.575 160.241,460 230.159,460 230,293 
		187.909,257.149 	"/>
	<polygon id="XMLID_1221_" style="fill:#2D79CC;" points="246.847,293 270.387,422.92 230,460 220,283 	"/>
	<polygon id="XMLID_1222_" style="fill:#3897FF;" points="213.153,293 189.613,422.92 230,460 230,283 	"/>
	<polygon id="XMLID_1223_" style="fill:#3897FF;" points="272.091,257.149 246.847,293 230,293 220,275.075 230,257.149 	"/>
	<polygon id="XMLID_1224_" style="fill:#8BC0FF;" points="187.909,257.149 213.153,293 230,293 230,257.149 	"/>
	<rect id="XMLID_1225_" x="300.078" y="257.149" style="fill:#233145;" width="30" height="202.851"/>
	<path id="XMLID_1226_" style="fill:#233145;" d="M4.013,460h125.909l20-101.425l-20-101.425C55.317,294,4.013,371.147,4.013,460z"
		/>
	<rect id="XMLID_1227_" x="129.922" y="257.149" style="fill:#466289;" width="30" height="202.851"/>
	<polygon id="XMLID_1228_" style="fill:#FFB739;" points="230,0 220,188 339.756,168 359.167,51.5 305.333,75.333 	"/>
	<polygon id="XMLID_1229_" style="fill:#FFD488;" points="230,0 230,188 120.244,168 100.833,51.5 154.667,75.333 	"/>
	<polygon id="XMLID_1230_" style="fill:#FB992D;" points="230,228 329.759,228 339.756,168 230,168 200,198 	"/>
	<polygon id="XMLID_1231_" style="fill:#FFB739;" points="230,228 130.241,228 120.244,168 230,168 	"/>
</g>
<g>
</g>
<g>
</g>
<g>
</g>
<g>
</g>
<g>
</g>
<g>
</g>
<g>
</g>
<g>
</g>
<g>
</g>
<g>
</g>
<g>
</g>
<g>
</g>
<g>
</g>
<g>
</g>
<g>
</g>
</svg>
