<svg version="1.1" xmlns="http://www.w3.org/2000/svg" xmlns:xlink="http://www.w3.org/1999/xlink" style="" xml:space="preserve" width="460" height="460"><rect id="backgroundrect" width="100%" height="100%" x="0" y="0" fill="none" stroke="none"/>
















<g class="currentLayer" style=""><title>Layer 1</title>
	<path id="XMLID_1218_" style="" d="M455.987,460H330.078l-20-101.425l20-101.425   C404.683,294,455.987,371.147,455.987,460z" stroke="#ffffff" stroke-opacity="1" stroke-width="1" opacity="1" class="" fill="#919191" fill-opacity="1"/>
	<polygon id="XMLID_1219_" style="fill:#DAE0E7;" points="300.078,257.149 320.078,358.575 300.078,460 230.159,460 220,293    272.091,257.149  " stroke="#ffffff" stroke-opacity="1" stroke-width="1" opacity="1" class=""/>
	<polygon id="XMLID_1220_" style="fill:#FFFFFF;" points="160.241,257.149 140.241,358.575 160.241,460 230.159,460 230,293    187.909,257.149  " stroke="#ffffff" stroke-opacity="1" stroke-width="1" opacity="1" class=""/>
	<polygon id="XMLID_1221_" style="fill:#2D79CC;" points="246.847,293 270.387,422.92 230,460 220,283  " stroke="#ffffff" stroke-opacity="1" stroke-width="1" opacity="1" class=""/>
	<polygon id="XMLID_1222_" style="fill:#3897FF;" points="213.153,293 189.613,422.92 230,460 230,283  " stroke="#ffffff" stroke-opacity="1" stroke-width="1" opacity="1" class=""/>
	<polygon id="XMLID_1223_" style="fill:#3897FF;" points="272.091,257.149 246.847,293 230,293 220,275.075 230,257.149  " stroke="#ffffff" stroke-opacity="1" stroke-width="1" opacity="1" class=""/>
	<polygon id="XMLID_1224_" style="fill:#8BC0FF;" points="187.909,257.149 213.153,293 230,293 230,257.149  " stroke="#ffffff" stroke-opacity="1" stroke-width="1" opacity="1" class=""/>
	<rect id="XMLID_1225_" x="300.0780029296875" y="257.14898681640625" style="" width="30" height="202.8509979248047" stroke="#ffffff" stroke-opacity="1" stroke-width="1" opacity="1" class="" fill="#6d6d6d" fill-opacity="1"/>
	<path id="XMLID_1226_" style="" d="M4.013,460h125.909l20-101.425l-20-101.425C55.317,294,4.013,371.147,4.013,460z" stroke="#ffffff" stroke-opacity="1" stroke-width="1" opacity="1" class="" fill="#919191" fill-opacity="1"/>
	<rect id="XMLID_1227_" x="129.9219970703125" y="257.14898681640625" style="" width="30" height="202.8509979248047" stroke="#ffffff" stroke-opacity="1" stroke-width="1" opacity="1" class="" fill="#6d6d6d" fill-opacity="1"/>
	<polygon id="XMLID_1228_" style="fill:#FFB739;" points="230,0 220,188 339.756,168 359.167,51.5 305.333,75.333  " stroke="#ffffff" stroke-opacity="1" stroke-width="1" opacity="1" class=""/>
	<polygon id="XMLID_1229_" style="fill:#FFD488;" points="230,0 230,188 120.244,168 100.833,51.5 154.667,75.333  " stroke="#ffffff" stroke-opacity="1" stroke-width="1" opacity="1" class=""/>
	<polygon id="XMLID_1230_" style="fill:#FB992D;" points="230,228 329.759,228 339.756,168 230,168 200,198  " stroke="#ffffff" stroke-opacity="1" stroke-width="1" opacity="1" class=""/>
	<polygon id="XMLID_1231_" style="fill:#FFB739;" points="230,228 130.241,228 120.244,168 230,168  " stroke="#ffffff" stroke-opacity="1" stroke-width="1" opacity="1" class=""/>
<g id="svg_1">
</g><g id="svg_2">
</g><g id="svg_3">
</g><g id="svg_4">
</g><g id="svg_5">
</g><g id="svg_6">
</g><g id="svg_7">
</g><g id="svg_8">
</g><g id="svg_9">
</g><g id="svg_10">
</g><g id="svg_11">
</g><g id="svg_12">
</g><g id="svg_13">
</g><g id="svg_14">
</g><g id="svg_15">
</g></g></svg>